#!OML:ASF H:\BreakDance\Project 1\Capture day 1\Session 1\Male.ASF
:FULLY-SPECIFIED
:DEGREES
594
root 21.8314 16.2498 -3.54384 -174.169 -133.982 179.646
lowerback -4.40687 -3.2263 -3.14109
upperback 0.697746 -4.15649 0.833339
thorax 3.47457 -2.13859 2.30202
lowerneck -1.84622 -8.86343 -4.57924
upperneck -11.3133 -11.4616 7.81756
head -2.56888 -5.84442 3.47434
rclavicle -4.18069e-014 4.96962e-016
rhumerus -64.3345 15.612 -98.9189
rradius 63.7801
rwrist -32.9876
rhand -13.4962 -31.2518
rfingers 7.12502
rthumb 12.6148 -60.8509
lclavicle -4.18069e-014 4.96962e-016
lhumerus -46.7356 -36.5895 107.999
lradius 78.9765
lwrist 5.08548
lhand -20.2819 -33.3312
lfingers 7.12502
lthumb 6.06769 -3.43811
rfemur -42.1213 -7.54768 12.301
rtibia 55.3965
rfoot -5.94987 3.15928
rtoes 8.39554
lfemur 3.15162 8.7731 -16.0642
ltibia 38.2773
lfoot -17.2625 2.22978
ltoes -24.709
595
root 21.6842 16.3025 -3.52021 -174.292 -132.74 179.719
lowerback -4.41475 -3.3212 -3.13549
upperback 0.645517 -4.28335 0.826262
thorax 3.43236 -2.20028 2.28242
lowerneck -2.17712 -8.36114 -4.24314
upperneck -11.0264 -10.8042 7.51129
head -2.49125 -5.51481 3.28786
rclavicle -2.35436e-015 6.65929e-015
rhumerus -64.3221 15.2241 -98.5501
rradius 64.1378
rwrist -32.3486
rhand -13.286 -31.1584
rfingers 7.12502
rthumb 12.8175 -60.7449
lclavicle -2.35436e-015 6.65929e-015
lhumerus -47.569 -36.8162 108.258
lradius 79.2412
lwrist 4.99285
lhand -20.581 -33.7797
lfingers 7.12502
lthumb 5.7789 -3.87851
rfemur -41.9117 -6.6314 12.5725
rtibia 54.246
rfoot -5.71976 2.46175
rtoes 8.89481
lfemur 3.24398 8.59462 -16.1872
ltibia 38.7846
lfoot -15.7652 2.89653
ltoes -22.6471
596
root 21.5377 16.3462 -3.50009 -174.547 -131.515 179.967
lowerback -4.38939 -3.46421 -3.27111
upperback 0.600952 -4.4685 0.84397
thorax 3.3963 -2.29419 2.36363
lowerneck -2.53394 -7.81778 -4.05779
upperneck -10.7563 -10.0916 7.23378
head -2.40499 -5.15303 3.13773
rclavicle 1.34925e-014 -5.96354e-016
rhumerus -64.2076 14.9748 -98.1249
rradius 64.4221
rwrist -31.741
rhand -13.0621 -31.0364
rfingers 7.12502
rthumb 13.0333 -60.6092
lclavicle 1.34925e-014 -5.96354e-016
lhumerus -48.2552 -36.8648 108.452
lradius 79.3519
lwrist 4.95082
lhand -20.9211 -34.0269
lfingers 7.12502
lthumb 5.45051 -4.11704
rfemur -41.6692 -5.52407 12.6238
rtibia 53.2321
rfoot -5.49085 1.564
rtoes 8.8074
lfemur 3.17491 8.4128 -16.445
ltibia 39.5521
lfoot -14.4782 3.53353
ltoes -20.2901
597
root 21.393 16.3792 -3.48253 -174.95 -130.296 180.382
lowerback -4.32462 -3.64255 -3.52217
upperback 0.559514 -4.697 0.890221
thorax 3.35736 -2.41212 2.53701
lowerneck -2.88546 -7.2473 -4.01221
upperneck -10.5077 -9.34345 6.95267
head -2.31987 -4.76888 3.01376
rclavicle 4.71834e-014 -6.21202e-015
rhumerus -64.0079 14.857 -97.6499
rradius 64.6331
rwrist -31.1884
rhand -12.9098 -30.8209
rfingers 7.12502
rthumb 13.1801 -60.3843
lclavicle 4.71834e-014 -6.21202e-015
lhumerus -48.7943 -36.7581 108.603
lradius 79.2829
lwrist 4.94351
lhand -21.2357 -34.0788
lfingers 7.12502
lthumb 5.1468 -4.16126
rfemur -41.3965 -4.30122 12.4967
rtibia 52.394
rfoot -5.16682 0.561212
rtoes 8.63489
lfemur 2.97225 8.21923 -16.8336
ltibia 40.5603
lfoot -13.4605 4.14734
ltoes -17.9877
598
root 21.2511 16.3995 -3.46629 -175.506 -129.082 180.933
lowerback -4.20892 -3.84973 -3.8377
upperback 0.529408 -4.96397 0.969433
thorax 3.31552 -2.55082 2.77981
lowerneck -3.20802 -6.65278 -4.11828
upperneck -10.3026 -8.56159 6.6775
head -2.24784 -4.3639 2.92362
rclavicle 1.24469e-013 -5.72748e-015
rhumerus -63.7113 14.8725 -97.1273
rradius 64.7684
rwrist -30.6646
rhand -12.865 -30.4819
rfingers 7.12502
rthumb 13.2233 -60.0425
lclavicle 1.24469e-013 -5.72748e-015
lhumerus -49.1583 -36.515 108.718
lradius 79.0114
lwrist 4.93778
lhand -21.597 -33.9837
lfingers 7.12502
lthumb 4.79792 -4.05806
rfemur -41.0782 -3.05427 12.256
rtibia 51.7639
rfoot -4.71329 -0.39844
rtoes 8.5692
lfemur 2.67466 8.00715 -17.3276
ltibia 41.7888
lfoot -12.7789 4.75675
ltoes -16.1642
599
root 21.1131 16.4059 -3.45005 -176.159 -127.879 181.527
lowerback -4.04346 -4.05521 -4.09043
upperback 0.51323 -5.23454 1.04639
thorax 3.25814 -2.69004 2.98847
lowerneck -3.50043 -6.07084 -4.2637
upperneck -10.1119 -7.79832 6.35957
head -2.18411 -3.96668 2.8298
rclavicle -5.92006e-014 8.69683e-015
rhumerus -63.318 14.903 -96.5908
rradius 64.8327
rwrist -30.1019
rhand -12.8983 -30.058
rfingers 7.12502
rthumb 13.1912 -59.6207
lclavicle -5.92006e-014 8.69683e-015
lhumerus -49.3966 -36.2373 108.797
lradius 78.5245
lwrist 4.90122
lhand -22.0522 -33.7838
lfingers 7.12502
lthumb 4.35841 -3.84866
rfemur -40.7003 -1.89389 12.0135
rtibia 51.3589
rfoot -4.17506 -1.11857
rtoes 8.35849
lfemur 2.30626 7.77723 -17.8609
ltibia 43.2213
lfoot -12.4643 5.35871
ltoes -14.9555
600
root 20.9798 16.3979 -3.43304 -176.807 -126.712 182.044
lowerback -3.82137 -4.25749 -4.17743
upperback 0.501382 -5.51205 1.12291
thorax 3.16111 -2.82911 3.10935
lowerneck -3.75009 -5.50225 -4.3969
upperneck -9.9389 -7.05723 5.97043
head -2.13432 -3.58043 2.71397
rclavicle -6.66053e-014 -2.88238e-015
rhumerus -62.8503 14.9212 -96.0668
rradius 64.8425
rwrist -29.4464
rhand -13.0026 -29.5893
rfingers 7.12502
rthumb 13.0907 -59.1585
lclavicle -6.66053e-014 -2.88238e-015
lhumerus -49.5317 -35.9259 108.832
lradius 77.8197
lwrist 4.82551
lhand -22.5789 -33.5593
lfingers 7.12502
lthumb 3.84972 -3.61428
rfemur -40.2583 -0.916362 11.8834
rtibia 51.1763
rfoot -3.69845 -1.44223
rtoes 7.40296
lfemur 1.85928 7.51403 -18.3524
ltibia 44.8428
lfoot -12.5019 6.00556
ltoes -14.5307
601
root 20.8518 16.3757 -3.41436 -177.37 -125.612 182.403
lowerback -3.5485 -4.46754 -4.05323
upperback 0.494197 -5.81206 1.21063
thorax 3.02384 -2.97535 3.12875
lowerneck -3.98566 -4.93418 -4.51659
upperneck -9.77107 -6.32008 5.52039
head -2.08896 -3.1962 2.57742
rclavicle 4.01794e-014 -1.17283e-014
rhumerus -62.3132 14.9422 -95.5616
rradius 64.8156
rwrist -28.6691
rhand -13.1987 -29.083
rfingers 7.12502
rthumb 12.9017 -58.6642
lclavicle 4.01794e-014 -1.17283e-014
lhumerus -49.562 -35.5647 108.822
lradius 76.9119
lwrist 4.65762
lhand -23.2418 -33.3261
lfingers 7.12502
lthumb 3.20959 -3.3705
rfemur -39.7433 -0.192229 11.9269
rtibia 51.1914
rfoot -3.49965 -1.31268
rtoes 5.21141
lfemur 1.32195 7.19549 -18.7545
ltibia 46.6316
lfoot -12.8511 6.59131
ltoes -14.6233
602
root 20.7276 16.3404 -3.39294 -177.79 -124.584 182.565
lowerback -3.27291 -4.66737 -3.69365
upperback 0.491855 -6.10679 1.28579
thorax 2.86291 -3.11494 3.00858
lowerneck -4.16911 -4.36904 -4.57672
upperneck -9.61663 -5.5904 5.03703
head -2.05662 -2.81826 2.42248
rclavicle 4.08751e-014 -1.05356e-014
rhumerus -61.7224 14.8862 -95.0951
rradius 64.7552
rwrist -27.7541
rhand -13.5076 -28.5184
rfingers 7.12502
rthumb 12.6039 -58.1181
lclavicle 4.08751e-014 -1.05356e-014
lhumerus -49.5397 -35.2032 108.762
lradius 75.8133
lwrist 4.39866
lhand -23.955 -33.1358
lfingers 7.12502
lthumb 2.52078 -3.1709
rfemur -39.1598 0.246666 12.1651
rtibia 51.3584
rfoot -3.76751 -0.774982
rtoes 1.89391
lfemur 0.686499 6.82618 -19.0405
ltibia 48.5555
lfoot -13.4418 7.01492
ltoes -14.9052
603
root 20.6049 16.2944 -3.36811 -178.011 -123.616 182.497
lowerback -3.04314 -4.86653 -3.14958
upperback 0.491452 -6.4046 1.38947
thorax 2.7101 -3.25427 2.81501
lowerneck -4.29362 -3.78644 -4.63129
upperneck -9.47042 -4.83978 4.53114
head -2.03575 -2.43064 2.262
rclavicle 2.98674e-014 1.07344e-014
rhumerus -61.0906 14.8305 -94.642
rradius 64.6627
rwrist -26.761
rhand -13.9649 -27.8625
rfingers 7.12502
rthumb 12.163 -57.4889
lclavicle 2.98674e-014 1.07344e-014
lhumerus -49.435 -34.7636 108.663
lradius 74.5258
lwrist 4.03186
lhand -24.6516 -32.9964
lfingers 7.12502
lthumb 1.84802 -3.02462
rfemur -38.5335 0.444342 12.5915
rtibia 51.6156
rfoot -4.58628 -0.00117983
rtoes -1.95371
lfemur -0.0559235 6.42631 -19.1869
ltibia 50.571
lfoot -14.1993 7.15933
ltoes -15.1565
604
root 20.4814 16.2403 -3.33947 -177.982 -122.695 182.176
lowerback -2.89837 -5.06504 -2.46337
upperback 0.498561 -6.70355 1.55083
thorax 2.5991 -3.39405 2.59721
lowerneck -4.38062 -3.19307 -4.69769
upperneck -9.35724 -4.07764 3.99058
head -2.0297 -2.03722 2.09442
rclavicle -8.68192e-014 -5.56597e-015
rhumerus -60.4015 14.8109 -94.1628
rradius 64.5448
rwrist -25.8065
rhand -14.5678 -27.1256
rfingers 7.12502
rthumb 11.5816 -56.7856
lclavicle -8.68192e-014 -5.56597e-015
lhumerus -49.1994 -34.2113 108.525
lradius 73.0852
lwrist 3.59939
lhand -25.2751 -32.8412
lfingers 7.12502
lthumb 1.24587 -2.8651
rfemur -37.9025 0.45933 13.188
rtibia 51.9009
rfoot -5.90524 0.803613
rtoes -5.59848
lfemur -0.914904 6.00565 -19.1839
ltibia 52.6347
lfoot -15.0471 6.9794
ltoes -15.4206
